# xmcd
#
# Track frame offsets: 
#        150
#        27310
#        72600
#        120600
#        169285
#        192975
#
# Disc length: 4335 seconds
#
# Revision: 1
# Processed by: cddbd v1.5.2PL0 Copyright (c) Steve Scherf et al.
# Submitted via: ExactAudioCopy v0.99pb5
#
DISCID=5610ed06
DTITLE=Muhal Richards Abrams - The Visibility of Thought
DYEAR=2001
DGENRE=Avantgarde
TTITLE0=Duet for Contrabass and Piano
TTITLE1=Duet for Violin and Piano
TTITLE2=Baritone Voice and String Quartett
TTITLE3=Piano Duet #1
TTITLE4=The Visibility of Thought
TTITLE5=Piano Improvisation
EXTD=YEAR: 2001
EXTT0=
EXTT1=
EXTT2=
EXTT3=
EXTT4=
EXTT5=
PLAYORDER=
